<svg xmlns="http://www.w3.org/2000/svg" viewBox="0 0 640 360" role="img" aria-labelledby="title desc">
  <title id="title">Broken Wagon</title>
  <desc id="desc">A medieval wagon with a broken wheel and scattered cargo.</desc>
  <defs>
    <linearGradient id="sky" x1="0" y1="0" x2="0" y2="1">
      <stop offset="0%" stop-color="#2f3446"/>
      <stop offset="100%" stop-color="#1d1f2b"/>
    </linearGradient>
    <linearGradient id="ground" x1="0" y1="0" x2="0" y2="1">
      <stop offset="0%" stop-color="#3f3328"/>
      <stop offset="100%" stop-color="#2d241d"/>
    </linearGradient>
  </defs>

  <rect width="640" height="260" fill="url(#sky)"/>
  <rect y="260" width="640" height="100" fill="url(#ground)"/>

  <ellipse cx="320" cy="300" rx="210" ry="28" fill="#1a1411" opacity="0.45"/>

  <rect x="210" y="160" width="220" height="78" rx="10" fill="#8f5f35" stroke="#52351f" stroke-width="8"/>
  <rect x="220" y="172" width="200" height="54" rx="6" fill="#a57142" opacity="0.75"/>
  <line x1="246" y1="162" x2="246" y2="236" stroke="#5a3a23" stroke-width="6"/>
  <line x1="282" y1="162" x2="282" y2="236" stroke="#5a3a23" stroke-width="6"/>
  <line x1="318" y1="162" x2="318" y2="236" stroke="#5a3a23" stroke-width="6"/>
  <line x1="354" y1="162" x2="354" y2="236" stroke="#5a3a23" stroke-width="6"/>
  <line x1="390" y1="162" x2="390" y2="236" stroke="#5a3a23" stroke-width="6"/>

  <path d="M430 194 L515 182 L522 194 L434 208 Z" fill="#68462b" stroke="#4b2f1c" stroke-width="5"/>

  <circle cx="245" cy="258" r="42" fill="none" stroke="#2f2117" stroke-width="12"/>
  <circle cx="245" cy="258" r="8" fill="#2f2117"/>
  <line x1="245" y1="216" x2="245" y2="300" stroke="#2f2117" stroke-width="6"/>
  <line x1="203" y1="258" x2="287" y2="258" stroke="#2f2117" stroke-width="6"/>
  <line x1="214" y1="227" x2="276" y2="289" stroke="#2f2117" stroke-width="5"/>
  <line x1="214" y1="289" x2="276" y2="227" stroke="#2f2117" stroke-width="5"/>

  <path d="M392 268 a44 44 0 1 0 88 0 a44 44 0 1 0 -88 0" fill="none" stroke="#2f2117" stroke-width="12" stroke-dasharray="240 32"/>
  <path d="M424 246 L447 220" stroke="#2f2117" stroke-width="8" stroke-linecap="round"/>
  <path d="M438 274 L470 294" stroke="#2f2117" stroke-width="8" stroke-linecap="round"/>

  <rect x="454" y="145" width="30" height="20" rx="3" fill="#8f5f35"/>
  <rect x="488" y="150" width="24" height="16" rx="3" fill="#8f5f35"/>
  <rect x="470" y="128" width="18" height="14" rx="3" fill="#8f5f35"/>

  <path d="M544 166 L558 153" stroke="#6f747e" stroke-width="4"/>
  <path d="M560 170 L575 158" stroke="#6f747e" stroke-width="4"/>
  <path d="M550 182 L566 173" stroke="#6f747e" stroke-width="4"/>
</svg>
